<svg xmlns="http://www.w3.org/2000/svg" viewBox="0 0 512 512" role="img" aria-label="Festival Score Tracker icon">
  <defs>
    <linearGradient id="bg" x1="64" y1="32" x2="448" y2="480" gradientUnits="userSpaceOnUse">
      <stop offset="0" stop-color="#7C3AED" />
      <stop offset="0.46" stop-color="#4B0F63" />
      <stop offset="1" stop-color="#1A0830" />
    </linearGradient>
    <linearGradient id="pill" x1="126" y1="180" x2="386" y2="338" gradientUnits="userSpaceOnUse">
      <stop offset="0" stop-color="#4B3713" />
      <stop offset="0.5" stop-color="#332915" />
      <stop offset="1" stop-color="#17110A" />
    </linearGradient>
    <linearGradient id="goldStroke" x1="94" y1="170" x2="424" y2="356" gradientUnits="userSpaceOnUse">
      <stop offset="0" stop-color="#FFE866" />
      <stop offset="0.48" stop-color="#FFD700" />
      <stop offset="1" stop-color="#CFA500" />
    </linearGradient>
    <filter id="softShadow" x="-20%" y="-40%" width="140%" height="180%" color-interpolation-filters="sRGB">
      <feDropShadow dx="0" dy="20" stdDeviation="18" flood-color="#000000" flood-opacity="0.36" />
    </filter>
    <filter id="textShadow" x="-20%" y="-30%" width="140%" height="160%" color-interpolation-filters="sRGB">
      <feDropShadow dx="0" dy="5" stdDeviation="4" flood-color="#000000" flood-opacity="0.5" />
    </filter>
  </defs>

  <rect width="512" height="512" fill="url(#bg)" />
  <path d="M0 0h512v512H0z" fill="#000000" opacity="0.08" />
  <path d="M56 120c76-54 173-82 290-84 46-1 82 4 110 14v44c-47-15-105-21-174-16-83 6-158 29-226 68V120z" fill="#FFFFFF" opacity="0.08" />
  <path d="M36 412c89 31 178 46 267 45 64-1 122-10 173-28v46c-47 23-109 35-186 37-85 2-170-10-254-36v-64z" fill="#000000" opacity="0.18" />

  <g filter="url(#softShadow)">
    <path d="M129 168h285c19 0 32 19 25 37l-45 118c-4 13-17 21-31 21H86c-19 0-32-19-25-37l45-118c4-13 17-21 31-21z" fill="url(#pill)" />
    <path d="M129 168h285c19 0 32 19 25 37l-45 118c-4 13-17 21-31 21H86c-19 0-32-19-25-37l45-118c4-13 17-21 31-21z" fill="none" stroke="url(#goldStroke)" stroke-width="18" stroke-linejoin="round" />
    <path d="M127 196h274" stroke="#FFE866" stroke-width="8" stroke-linecap="round" opacity="0.45" />
  </g>

  <text x="256" y="296" text-anchor="middle" font-family="Arial Black, Arial, sans-serif" font-size="124" font-weight="900" font-style="italic" fill="#FFD700" stroke="#3A2B0A" stroke-width="5" paint-order="stroke fill" filter="url(#textShadow)">FST</text>
</svg>